<?xml version="1.0" encoding="utf-8"?>
<!-- Generator: Adobe Illustrator 21.0.2, SVG Export Plug-In . SVG Version: 6.00 Build 0)  -->
<svg version="1.1" id="Layer_1" xmlns="http://www.w3.org/2000/svg" xmlns:xlink="http://www.w3.org/1999/xlink" x="0px" y="0px"
	 viewBox="0 0 100 100" style="enable-background:new 0 0 100 100;" xml:space="preserve">
<style type="text/css">
	.st0{fill:#212121;}
	.st1{fill:none;stroke:#EBC181;stroke-width:2;stroke-miterlimit:10;}
</style>
<circle class="st0" cx="50" cy="50" r="50"/>
<g>
	<g>
		<polygon class="st1" points="72.9,39.8 72.9,75.6 26.8,75.6 26.8,39.8 31.9,24.4 67.8,24.4 		"/>
	</g>
	<line class="st1" x1="42.2" y1="39.4" x2="42.2" y2="24.4"/>
	<line class="st1" x1="57.5" y1="39.6" x2="57.5" y2="24.4"/>
	<g>
		<rect x="40.7" y="48.4" class="st1" width="18.3" height="17"/>
		<line class="st1" x1="50" y1="65.4" x2="50" y2="48.6"/>
	</g>
	<path class="st1" d="M26.9,39.7c2.1,1.5,4.7,2.5,7.5,2.5c2.9,0,5.6-1,7.8-2.8c2.2,1.7,4.9,2.8,7.8,2.8c2.9,0,5.5-1,7.6-2.5
		c2.1,1.6,4.7,2.5,7.6,2.5c3,0,5.7-1,7.9-2.8"/>
</g>
</svg>
