<?xml version="1.0" encoding="utf-8"?>
<!-- Generator: Adobe Illustrator 21.0.2, SVG Export Plug-In . SVG Version: 6.00 Build 0)  -->
<svg version="1.1" id="Layer_1" xmlns="http://www.w3.org/2000/svg" xmlns:xlink="http://www.w3.org/1999/xlink" x="0px" y="0px"
	 viewBox="0 0 100 100" style="enable-background:new 0 0 100 100;" xml:space="preserve">
<style type="text/css">
	.st0{fill:#212121;}
	.st1{fill:none;stroke:#EBC181;stroke-width:2;stroke-linecap:round;stroke-linejoin:round;stroke-miterlimit:10;}
	.st2{fill:none;stroke:#EBC181;stroke-width:2;stroke-miterlimit:10;}
</style>
<circle class="st0" cx="50.2" cy="49.5" r="50"/>
<g>
	<path class="st1" d="M61.8,41.2h15V48H61.7l0,0c-1.5,4.6-5.9,7.9-11,7.9s-9.4-3.3-11-7.9"/>
	<path class="st2" d="M39.2,48"/>
	<path class="st1" d="M39.7,48h-9.4v6.3h-6.9V48v0.5c0-4.1,3.3-7.4,7.3-7.4h9.1v0.1c1.3-5,5.5-8.4,10.9-8.4c5.3,0,9.8,3.5,11.1,8.4"
		/>
	<path class="st2" d="M39.6,48"/>
	<line class="st2" x1="50.7" y1="32.8" x2="50.7" y2="26.2"/>
	<path class="st2" d="M22.5,73.1c0.6-3.6,4.8-13.8,4.8-13.8s4.2,10.2,4.8,13.8c0.5,2.6-2.1,4.8-4.8,4.8C24.6,78,22.1,75.7,22.5,73.1
		z"/>
	<line class="st2" x1="41.6" y1="25.6" x2="60.1" y2="25.6"/>
</g>
</svg>
