<?xml version="1.0" encoding="utf-8"?>
<!-- Generator: Adobe Illustrator 21.0.2, SVG Export Plug-In . SVG Version: 6.00 Build 0)  -->
<svg version="1.1" id="Layer_1" xmlns="http://www.w3.org/2000/svg" xmlns:xlink="http://www.w3.org/1999/xlink" x="0px" y="0px"
	 viewBox="0 0 100 100" style="enable-background:new 0 0 100 100;" xml:space="preserve">
<style type="text/css">
	.st0{fill:#212121;}
	.st1{fill:none;stroke:#EBC181;stroke-width:2;stroke-miterlimit:10;}
</style>
<circle class="st0" cx="49.8" cy="49.6" r="50"/>
<g>
	<g>
		<path class="st1" d="M42,48.3c-2.2,0-4-1.8-4-4c0-2.5,2.2-9.3,2.6-12.5c0.4-2.9-2.4-5.3-5.3-5.3S29.6,29,30,31.9
			c0.4,3.2,2.7,9.9,2.7,12.5c0,2.2-1.8,4-4,4h-6.4V74h25.9V48.3H42z"/>
		<circle class="st1" cx="35.2" cy="31.8" r="2.2"/>
		<line class="st1" x1="22.3" y1="55.8" x2="48.2" y2="55.8"/>
	</g>
	<polyline class="st1" points="66.6,37.6 66.6,74 59.1,74 59.1,37.6 	"/>
	<polyline class="st1" points="59.1,29.7 59.1,25.2 66.6,25.2 66.6,29.7 	"/>
	<polygon class="st1" points="77.4,33.8 77.4,37.6 48.4,37.6 48.4,29.7 71.8,29.7 	"/>
</g>
</svg>
