<?xml version="1.0" encoding="utf-8"?>
<!-- Generator: Adobe Illustrator 21.0.2, SVG Export Plug-In . SVG Version: 6.00 Build 0)  -->
<svg version="1.1" id="Layer_1" xmlns="http://www.w3.org/2000/svg" xmlns:xlink="http://www.w3.org/1999/xlink" x="0px" y="0px"
	 viewBox="0 0 100 100" style="enable-background:new 0 0 100 100;" xml:space="preserve">
<style type="text/css">
	.st0{fill:#212121;}
	.st1{fill:none;stroke:#EBC181;stroke-width:2;stroke-miterlimit:10;}
</style>
<circle class="st0" cx="50" cy="50" r="50"/>
<g>
	<g>
		<path class="st1" d="M52.3,64.7c7.7,0.7,13.5,3.6,13.5,7.1c0,4-7.6,7.2-16.9,7.2C39.6,79,32,75.7,32,71.8c0-3.4,5.5-6.3,13.1-7"/>
		<path class="st1" d="M65.8,38.3c0-9.3-7.5-16.9-16.9-16.9S32,28.9,32,38.3c0,3.3,1,6.4,2.6,9l0,0l14,23.4l14.6-23.4l0,0
			C64.8,44.7,65.8,41.6,65.8,38.3z"/>
	</g>
	<circle class="st1" cx="49.2" cy="38.3" r="5.5"/>
</g>
</svg>
